<svg xmlns="http://www.w3.org/2000/svg" id="Layer_1" data-name="Layer 1" viewBox="0 0 417.83 398.8"><defs><style>.cls-1{fill:#fff}</style></defs><path d="M79.35 228.19q-16.5-24.94-21.73-46c-3.49-14-4.18-26.84-2.08-38.41a73.54 73.54 0 0 1 13.32-31.07A110.41 110.41 0 0 1 93.28 88.8q16.36-11.74 31.55-15.26a66.48 66.48 0 0 1 28.94-.62 64.85 64.85 0 0 1 25.64 11.79 100 100 0 0 1 21.26 22c1.71 2.38 3.53 5.27 5.5 8.64a56.46 56.46 0 0 1 2.9 5.71 93.23 93.23 0 0 1 17.51 29.37l69.83-53.82a247.74 247.74 0 0 0-10.4-25.66 152.86 152.86 0 0 0-14.08-23.82 133.39 133.39 0 0 0-29.71-30.24 87.68 87.68 0 0 0-37.81-15.78q-20.82-3.45-46.15 3.85t-54.73 28.36a279.39 279.39 0 0 0-59.26 57.62 219.5 219.5 0 0 0-36.86 72.41q-11.34 39-5.23 81.08t35.81 83.56q26.63 37.14 57.62 53.45t62.91 17.28a161.64 161.64 0 0 0 62.89-10.82 252.85 252.85 0 0 0 57.73-30.93q75.81-54.36 114.33-159.49l-24.25-8.2q-9.84 16.41-18.58 28.84t-17.37 22.55a184.61 184.61 0 0 1-17.86 18.26 250 250 0 0 1-19.89 15.79q-26.4 18.93-52.46 28.33t-51.17 7.43q-25.05-2-49-16.43T96.47 250.8l.31-.23" class="cls-1"/><path d="M225.17 87.16h5.16v228.38h-5.16z" class="cls-1"/><path d="M208.32 169.35h38.86v76.91h-38.86zm-50.95 17.15h38.86v89.98h-38.86z" class="cls-1"/><path d="M174.22 72.18h5.16v276.96h-5.16zm-69.65 97.12h38.86v38.86h-38.86z" class="cls-1"/><path d="M121.42 43.27h5.16v276.96h-5.16zm248.24 256.04-82-66.49 130.16-75.45-48.16 141.94z" class="cls-1"/></svg>