<svg xmlns="http://www.w3.org/2000/svg" viewBox="0 0 272.09 275.77"><defs><style>.cls-1{fill:#fff}</style></defs><g id="OBJECTS"><path d="M255.32 130.89q-6.81 11.34-12.85 19.94t-12 15.59a127.74 127.74 0 0 1-12.38 12.62 175.67 175.67 0 0 1-13.76 10.93 149.69 149.69 0 0 1-36.28 19.58 83.86 83.86 0 0 1-35.38 5.14q-17.33-1.35-33.87-11.36t-32.08-29.92l.18-.15a29.58 29.58 0 0 1-10.77-15.91c0-.15-.07-.3-.11-.45l-1.17.9q-11.42-17.25-15-31.83t-1.44-26.56a50.9 50.9 0 0 1 9.21-21.48 76.23 76.23 0 0 1 16.89-16.54q11.31-8.1 21.82-10.54a45.85 45.85 0 0 1 20-.43 45 45 0 0 1 17.76 8.17 68.74 68.74 0 0 1 14.69 15.18c1.19 1.65 2.45 3.65 3.81 6a41.68 41.68 0 0 1 2 4 64.32 64.32 0 0 1 12.1 20.31l48.21-37.27a171.72 171.72 0 0 0-7.18-17.75 107.47 107.47 0 0 0-9.74-16.48 92.79 92.79 0 0 0-20.55-20.91A60.53 60.53 0 0 0 141.34.77q-14.4-2.4-31.91 2.65T71.59 23.04a193.13 193.13 0 0 0-41 39.84A151.64 151.64 0 0 0 5.1 112.96a130.78 130.78 0 0 0-3.62 56.06q4.21 29.13 24.76 57.78 18.41 25.68 39.84 37t43.5 11.95a111.63 111.63 0 0 0 43.53-7.49 175.22 175.22 0 0 0 39.92-21.39q52.41-37.61 79.06-110.32Z" class="cls-1"/><path d="M70.73 62.81h2.65v118.38h-2.65z" class="cls-1"/><path d="M62.8 101.97h19.93v71.63H62.8zm61.74-59.85h2.65v128.69h-2.65z" class="cls-1"/><path d="M115.9 78.57h19.93v74.71H115.9z" class="cls-1"/><path d="m172 39.54-19.62 8.94 15.68 11.03-20.22 45.12-24.29-18.43-35.86 66.82-32.77-25.65-47.1 88.18 11.78 9.18L61.13 147l32.75 25.63 35.96-67.02 24.94 18.93 25.38-56.52 14.01 9.86-2.26-23.69-2.34-21.78L172 39.54z"/><path d="M89.76 122h19.93v45.19H89.76z" class="cls-1"/><path d="M98.41 73.2h2.65v118.38h-2.65z" class="cls-1"/></g></svg>