<svg xmlns="http://www.w3.org/2000/svg" viewBox="0 0 272.09 275.77"><path d="M255.32 130.89q-6.81 11.34-12.85 19.94t-12 15.59a126.71 126.71 0 0 1-12.39 12.62 172 172 0 0 1-13.76 10.93 149.45 149.45 0 0 1-36.27 19.58 84 84 0 0 1-35.38 5.14q-17.33-1.35-33.87-11.36t-32.09-29.92l.21-.14a29.65 29.65 0 0 1-10.76-15.91c0-.15-.07-.3-.11-.45l-1.17.9q-11.42-17.25-15-31.83t-1.43-26.56a50.77 50.77 0 0 1 9.21-21.48A76.23 76.23 0 0 1 64.55 61.4c7.54-5.4 14.83-8.92 21.81-10.54a45.9 45.9 0 0 1 20-.43 45 45 0 0 1 17.75 8.16 69 69 0 0 1 14.7 15.19c1.18 1.65 2.44 3.65 3.81 6a40.33 40.33 0 0 1 2 3.94 64.5 64.5 0 0 1 12.11 20.32l48.19-37.24a172.49 172.49 0 0 0-7.19-17.74A106.6 106.6 0 0 0 188 32.58a92.79 92.79 0 0 0-20.55-20.91A60.58 60.58 0 0 0 141.36.77q-14.4-2.4-31.91 2.65T71.6 23.04a193.32 193.32 0 0 0-41 39.84 151.58 151.58 0 0 0-25.55 50.08 131.09 131.09 0 0 0-3.62 56.06q4.22 29.13 24.77 57.78 18.4 25.68 39.84 37t43.5 11.95a111.82 111.82 0 0 0 43.57-7.48 174.94 174.94 0 0 0 39.91-21.39q52.43-37.61 79.06-110.33Z"/><path d="M70.73 62.81h2.65v118.38h-2.65z"/><path d="M62.8 101.97h19.93v71.63H62.8zm61.74-59.85h2.65v128.69h-2.65z"/><path d="M115.9 78.57h19.93v74.71H115.9z"/><path d="m172 40.54-19.62 8.94 15.68 11.03-20.22 45.12-24.29-18.43-35.86 66.82-32.77-25.65-47.1 88.18 11.78 9.18L61.13 148l32.75 25.63 35.96-67.02 24.94 18.93 25.38-56.52 14.01 9.86-2.26-23.69-2.34-21.78L172 40.54z" style="fill:#fff"/><path d="M89.76 122h19.93v45.19H89.76z"/><path d="M98.41 73.2h2.65v118.38h-2.65z"/></svg>