<svg xmlns="http://www.w3.org/2000/svg" viewBox="0 0 272.09 275.77"><defs><style>.cls-1{fill:#fff;}</style></defs><title>6021219 light</title><g id="OBJECTS"><path d="M492.4,224.62q-6.81,11.34-12.85,19.94t-12,15.59a126.71,126.71,0,0,1-12.39,12.62,172,172,0,0,1-13.76,10.93,149.45,149.45,0,0,1-36.27,19.58,84,84,0,0,1-35.38,5.14q-17.33-1.35-33.87-11.36t-32.09-29.92L304,267a29.65,29.65,0,0,1-10.76-15.91c0-.15-.07-.3-.11-.45l-1.17.9q-11.42-17.25-15-31.83t-1.43-26.56a50.77,50.77,0,0,1,9.21-21.48,76.23,76.23,0,0,1,16.89-16.54c7.54-5.4,14.83-8.92,21.81-10.54a45.9,45.9,0,0,1,20-.43,45,45,0,0,1,17.75,8.16,69,69,0,0,1,14.7,15.19c1.18,1.65,2.44,3.65,3.81,6a40.33,40.33,0,0,1,2,3.94,64.5,64.5,0,0,1,12.11,20.32L442,160.53a172.49,172.49,0,0,0-7.19-17.74,106.6,106.6,0,0,0-9.73-16.48,92.79,92.79,0,0,0-20.55-20.91,60.58,60.58,0,0,0-26.09-10.9q-14.4-2.4-31.91,2.65t-37.85,19.62a193.32,193.32,0,0,0-41,39.84,151.58,151.58,0,0,0-25.55,50.08,131.09,131.09,0,0,0-3.62,56.06q4.22,29.13,24.77,57.78,18.4,25.68,39.84,37t43.5,11.95A111.82,111.82,0,0,0,390.19,362a174.94,174.94,0,0,0,39.91-21.39Q482.53,303,509.16,230.28Z" transform="translate(-237.08 -93.73)"/><rect x="70.73" y="62.81" width="2.65" height="118.38"/><rect x="62.8" y="101.97" width="19.93" height="71.63"/><rect x="124.54" y="42.12" width="2.65" height="128.69"/><rect x="115.9" y="78.57" width="19.93" height="74.71"/><polygon class="cls-1" points="172 40.54 152.38 49.48 168.06 60.51 147.84 105.63 123.55 87.2 87.69 154.02 54.92 128.37 7.82 216.55 19.6 225.73 61.13 148 93.88 173.63 129.84 106.61 154.78 125.54 180.16 69.02 194.17 78.88 191.91 55.19 189.57 33.41 172 40.54"/><rect x="89.76" y="122" width="19.93" height="45.19"/><rect x="98.41" y="73.2" width="2.65" height="118.38"/></g></svg>