<svg xmlns="http://www.w3.org/2000/svg" viewBox="0 0 272.09 275.77"><defs><style>.cls-1{fill:#fff;}</style></defs><title>6021219 light1</title><g id="OBJECTS"><path class="cls-1" d="M528.42,210.63q-6.81,11.34-12.85,19.94t-12,15.59a127.74,127.74,0,0,1-12.38,12.62,175.67,175.67,0,0,1-13.76,10.93,149.69,149.69,0,0,1-36.28,19.58,83.86,83.86,0,0,1-35.38,5.14q-17.33-1.35-33.87-11.36t-32.08-29.92L340,253a29.58,29.58,0,0,1-10.77-15.91c0-.15-.07-.3-.11-.45l-1.17.9q-11.42-17.25-15-31.83t-1.44-26.56a50.9,50.9,0,0,1,9.21-21.48,76.23,76.23,0,0,1,16.89-16.54q11.31-8.1,21.82-10.54a45.85,45.85,0,0,1,20-.43,45,45,0,0,1,17.76,8.17,68.74,68.74,0,0,1,14.69,15.18c1.19,1.65,2.45,3.65,3.81,6a41.68,41.68,0,0,1,2,4,64.32,64.32,0,0,1,12.1,20.31L478,146.55a171.72,171.72,0,0,0-7.18-17.75,107.47,107.47,0,0,0-9.74-16.48,92.79,92.79,0,0,0-20.55-20.91,60.53,60.53,0,0,0-26.09-10.9q-14.4-2.4-31.91,2.65t-37.84,19.62a193.13,193.13,0,0,0-41,39.84A151.64,151.64,0,0,0,278.2,192.7a130.78,130.78,0,0,0-3.62,56.06q4.21,29.13,24.76,57.78,18.41,25.68,39.84,37t43.5,11.95A111.63,111.63,0,0,0,426.21,348a175.22,175.22,0,0,0,39.92-21.39Q518.54,289,545.19,216.29Z" transform="translate(-273.1 -79.74)"/><rect class="cls-1" x="70.73" y="62.81" width="2.65" height="118.38"/><rect class="cls-1" x="62.8" y="101.97" width="19.93" height="71.63"/><rect class="cls-1" x="124.54" y="42.12" width="2.65" height="128.69"/><rect class="cls-1" x="115.9" y="78.57" width="19.93" height="74.71"/><polygon points="172 39.54 152.38 48.48 168.06 59.51 147.84 104.63 123.55 86.2 87.69 153.02 54.92 127.37 7.82 215.55 19.6 224.73 61.13 147 93.88 172.63 129.84 105.61 154.78 124.54 180.16 68.02 194.17 77.88 191.91 54.19 189.57 32.41 172 39.54"/><rect class="cls-1" x="89.76" y="122" width="19.93" height="45.19"/><rect class="cls-1" x="98.41" y="73.2" width="2.65" height="118.38"/></g></svg>