<svg id="Layer_1" data-name="Layer 1" xmlns="http://www.w3.org/2000/svg" viewBox="0 0 417.83 398.8"><defs><style>.cls-1{fill:red;}.cls-2{fill:#28a00b;}.cls-3{fill:#104eb2;}</style></defs><title>color</title><rect class="cls-1" x="157.37" y="186.5" width="38.86" height="89.98"/><rect class="cls-1" x="174.22" y="72.18" width="5.16" height="276.96"/><rect class="cls-2" x="104.57" y="169.3" width="38.86" height="38.86"/><rect class="cls-2" x="121.42" y="43.27" width="5.16" height="276.96"/><rect class="cls-2" x="225.17" y="87.16" width="5.16" height="228.38"/><rect class="cls-2" x="208.32" y="169.35" width="38.86" height="76.91"/><path class="cls-3" d="M614.94,376.39q-16.5-24.94-21.73-46c-3.49-14-4.18-26.84-2.08-38.41a73.54,73.54,0,0,1,13.32-31.07A110.41,110.41,0,0,1,628.87,237q16.36-11.74,31.55-15.26a66.48,66.48,0,0,1,28.94-.62A64.85,64.85,0,0,1,715,232.91a100,100,0,0,1,21.26,22c1.71,2.38,3.53,5.27,5.5,8.64a56.46,56.46,0,0,1,2.9,5.71,93.23,93.23,0,0,1,17.51,29.37L832,244.81a247.74,247.74,0,0,0-10.4-25.66,152.86,152.86,0,0,0-14.08-23.82,133.39,133.39,0,0,0-29.71-30.24A87.68,87.68,0,0,0,740,149.31q-20.82-3.45-46.15,3.85t-54.73,28.36a279.39,279.39,0,0,0-59.26,57.62A219.5,219.5,0,0,0,543,311.55q-11.34,39-5.23,81.08t35.81,83.56q26.63,37.14,57.62,53.45t62.91,17.28A161.64,161.64,0,0,0,757,536.1a252.85,252.85,0,0,0,57.73-30.93q75.81-54.36,114.33-159.49l-24.25-8.2q-9.84,16.41-18.58,28.84t-17.37,22.55A184.61,184.61,0,0,1,851,407.13a250,250,0,0,1-19.89,15.79q-26.4,18.93-52.46,28.33t-51.17,7.43q-25.05-2-49-16.43T632.06,399l.31-.23" transform="translate(-535.59 -148.2)"/><polygon class="cls-3" points="369.66 299.31 287.66 232.82 417.82 157.37 369.66 299.31"/></svg>